<svg width="978" height="124" viewBox="0 0 978 124" fill="none" xmlns="http://www.w3.org/2000/svg">
<path fill-rule="evenodd" clip-rule="evenodd" d="M164 3H243.07V27H189.968V51H239.075V75H189.968V121H164V3ZM291.345 3H312.819L364.089 121H334.792L324.637 96H278.86L269.039 121H240.407L291.345 3ZM301.333 37.3333L287.017 74H315.815L301.333 37.3333ZM452.981 33.6667C450.428 30.5555 447.293 28.1667 443.576 26.5C439.858 24.8333 435.558 24 430.675 24C425.792 24 421.27 24.9444 417.108 26.8333C412.946 28.7222 409.34 31.3611 406.288 34.75C403.236 38.1389 400.85 42.1666 399.13 46.8333C397.41 51.5 396.55 56.5555 396.55 62C396.55 67.5556 397.41 72.6389 399.13 77.25C400.85 81.8611 403.208 85.8611 406.205 89.25C409.201 92.6389 412.724 95.2778 416.775 97.1667C420.826 99.0556 425.181 100 429.842 100C435.169 100 439.886 98.8889 443.992 96.6667C448.098 94.4444 451.483 91.3334 454.146 87.3333L475.786 103.5C470.793 110.5 464.467 115.667 456.81 119C449.152 122.333 441.273 124 433.172 124C423.961 124 415.471 122.556 407.703 119.667C399.934 116.778 393.22 112.639 387.561 107.25C381.901 101.861 377.49 95.3334 374.327 87.6667C371.164 80 369.583 71.4445 369.583 62C369.583 52.5555 371.164 44 374.327 36.3333C377.49 28.6666 381.901 22.1389 387.561 16.75C393.22 11.3611 399.934 7.22224 407.703 4.33333C415.471 1.44443 423.961 0 433.172 0C436.501 0 439.969 0.305553 443.576 0.916667C447.182 1.52778 450.734 2.49999 454.229 3.83333C457.725 5.16667 461.082 6.94443 464.3 9.16667C467.519 11.3889 470.404 14.1111 472.957 17.3333L452.981 33.6667ZM490.935 3H571.004V27H516.903V49H568.007V73H516.903V97H574V121H490.935V3Z" fill="black"/>
<path fill-rule="evenodd" clip-rule="evenodd" d="M26 0H0V26V52V78H26V52H52V26H78V0H52H26Z" fill="#F05136"/>
<path fill-rule="evenodd" clip-rule="evenodd" d="M124 20H98V46H72V72H46V98H20V124H46H72H98H124V98V72V46V20Z" fill="#F05136"/>
<path fill-rule="evenodd" clip-rule="evenodd" d="M614 0H978L924.666 124H614L614 0Z" fill="#F05136"/>
<mask id="mask0_0_462" style="mask-type:luminance" maskUnits="userSpaceOnUse" x="614" y="0" width="364" height="124">
<path fill-rule="evenodd" clip-rule="evenodd" d="M614 0H978L924.666 124H614L614 0Z" fill="white"/>
</mask>
<g mask="url(#mask0_0_462)">
<path fill-rule="evenodd" clip-rule="evenodd" d="M629.992 14H665.481C670.428 14 675.106 14.45 679.514 15.35C683.922 16.25 687.767 17.8025 691.051 20.0075C694.334 22.2125 696.943 25.1825 698.877 28.9175C700.811 32.6525 701.778 37.355 701.778 43.025C701.778 48.605 700.879 53.285 699.08 57.065C697.28 60.845 694.807 63.86 691.658 66.11C688.51 68.36 684.776 69.9575 680.458 70.9025C676.14 71.8475 671.463 72.32 666.425 72.32H651.042V109.58H629.992V14ZM651.042 54.5H665.076C666.965 54.5 668.786 54.32 670.541 53.96C672.295 53.6 673.869 52.9925 675.263 52.1375C676.658 51.2825 677.782 50.1125 678.637 48.6275C679.491 47.1425 679.919 45.275 679.919 43.025C679.919 40.595 679.356 38.6375 678.232 37.1525C677.108 35.6675 675.668 34.52 673.914 33.71C672.16 32.9 670.203 32.3825 668.044 32.1575C665.885 31.9325 663.816 31.82 661.837 31.82H651.042V54.5ZM732.679 43.97H712.438V109.58H732.679V82.175C732.679 78.935 732.859 75.965 733.218 73.265C733.578 70.565 734.365 68.2475 735.58 66.3125C736.794 64.3775 738.526 62.87 740.775 61.79C743.024 60.71 746.082 60.17 749.95 60.17C751.48 60.17 752.942 60.2825 754.336 60.5075C755.73 60.7325 757.147 61.07 758.586 61.52V43.025C757.597 42.755 756.517 42.575 755.348 42.485C754.178 42.395 753.009 42.35 751.84 42.35C747.342 42.35 743.608 43.3625 740.64 45.3875C737.671 47.4125 735.108 50.45 732.949 54.5H732.679V43.97ZM826.999 98.24C823.76 102.38 819.667 105.575 814.72 107.825C809.772 110.075 804.645 111.2 799.337 111.2C794.299 111.2 789.554 110.39 785.101 108.77C780.648 107.15 776.78 104.833 773.497 101.817C770.213 98.8025 767.627 95.18 765.738 90.95C763.849 86.72 762.904 81.995 762.904 76.775C762.904 71.555 763.849 66.83 765.738 62.6C767.627 58.37 770.213 54.7475 773.497 51.7325C776.78 48.7175 780.648 46.4 785.101 44.78C789.554 43.16 794.299 42.35 799.337 42.35C804.015 42.35 808.265 43.16 812.088 44.78C815.912 46.4 819.15 48.7175 821.804 51.7325C824.458 54.7475 826.504 58.37 827.943 62.6C829.383 66.83 830.102 71.555 830.102 76.775V83.12H783.145C783.954 86.99 785.708 90.0725 788.407 92.3675C791.106 94.6625 794.434 95.81 798.392 95.81C801.721 95.81 804.532 95.0675 806.826 93.5825C809.12 92.0975 811.121 90.185 812.831 87.845L826.999 98.24ZM806.489 60.575C808.828 63.005 809.952 65.93 809.862 69.35H783.145C783.235 67.73 783.617 66.1775 784.292 64.6925C784.966 63.2075 785.911 61.9025 787.125 60.7775C788.34 59.6525 789.802 58.73 791.511 58.01C793.22 57.29 795.199 56.93 797.448 56.93C801.136 56.93 804.15 58.145 806.489 60.575ZM844.271 43.97H862.892V52.61H863.162C863.971 51.44 865.028 50.2475 866.333 49.0325C867.637 47.8175 869.166 46.715 870.921 45.725C872.675 44.735 874.586 43.925 876.655 43.295C878.724 42.665 880.928 42.35 883.267 42.35C888.125 42.35 892.533 43.1825 896.491 44.8475C900.449 46.5125 903.845 48.8525 906.679 51.8675C909.512 54.8825 911.694 58.46 913.223 62.6C914.752 66.74 915.517 71.285 915.517 76.235C915.517 80.825 914.82 85.2125 913.425 89.3975C912.031 93.5825 910.052 97.295 907.488 100.535C904.924 103.775 901.798 106.362 898.11 108.298C894.422 110.233 890.239 111.2 885.561 111.2C881.333 111.2 877.397 110.548 873.754 109.243C870.111 107.937 867.12 105.71 864.781 102.56H864.511V140.36H844.271V43.97ZM867.142 88.79C864.309 85.73 862.892 81.725 862.892 76.775C862.892 71.825 864.309 67.82 867.142 64.76C869.976 61.7 873.957 60.17 879.084 60.17C884.212 60.17 888.192 61.7 891.026 64.76C893.86 67.82 895.276 71.825 895.276 76.775C895.276 81.725 893.86 85.73 891.026 88.79C888.192 91.85 884.212 93.38 879.084 93.38C873.957 93.38 869.976 91.85 867.142 88.79Z" fill="white"/>
</g>
</svg>
